# xmcd
#
# Track frame offsets:
#	150
#	10965
#	22095
#	32723
#	42991
#	53709
#	63212
#	75677
#	87092
#	99857
#	112450
#	123033
#
# Disc length: 1777 seconds
#
# Revision: 0
# Processed by: cddbd v1.5.2PL0 Copyright (c) Steve Scherf et al.
# Submitted via: audiograbber 1.83.01
#
DISCID=9106ef0c
DTITLE=Jean Shepard - The Best Of
DYEAR=1963
DGENRE=Country
TTITLE0=A Satisfied Mind
TTITLE1=A Dear John Letter
TTITLE2=Forgive Me, John
TTITLE3=The Other Woman
TTITLE4=Two Voices, Two Shadows, Two Faces
TTITLE5=The Root Of All Evil (Is Man)
TTITLE6=Beautiful Lies
TTITLE7=How Long Does It Hurt (When A Heart Breaks)
TTITLE8=I've Got To Talk To Mary
TTITLE9=Don't Fall In Love With A Married Man
TTITLE10=Under Suspicion
TTITLE11=I Learned It All From You
EXTD=This is from my LP that I converted to a CD
EXTT0=
EXTT1=
EXTT2=
EXTT3=
EXTT4=
EXTT5=
EXTT6=
EXTT7=
EXTT8=
EXTT9=
EXTT10=
EXTT11=
PLAYORDER=
